<svg width="18" height="18" viewBox="0 0 18 18" fill="none" xmlns="http://www.w3.org/2000/svg">
<g clip-path="url(#clip0_785_1173)">
<path d="M9 0.000976562C4.03735 0.000976562 0 4.03832 0 9.00088C0 13.9634 4.03735 18.0008 9 18.0008C13.9627 18.0008 18 13.9634 18 9.00088C18 4.03832 13.9627 0.000976562 9 0.000976562ZM14.8649 4.24554C15.8753 5.48924 16.4974 7.05903 16.5491 8.77025C14.6775 8.38279 12.9827 8.42826 11.4866 8.7216C11.2157 8.08809 10.9353 7.48455 10.6523 6.91414C12.2816 6.21224 13.7 5.31574 14.8649 4.24554ZM13.8511 3.21513C12.6948 4.27059 11.3547 5.05207 9.98263 5.62902C8.97553 3.78737 8.01198 2.40051 7.425 1.61239C7.93327 1.50411 8.45994 1.44602 9 1.44602C10.8455 1.44602 12.5377 2.11208 13.8511 3.21513ZM5.96551 2.08434C6.40875 2.65869 7.4645 4.0968 8.59857 6.14288C5.74837 7.07146 2.98276 7.22791 1.6538 7.24246C2.20773 4.92847 3.8282 3.02573 5.96551 2.08434ZM1.45294 8.69116C1.4672 8.69116 1.48097 8.69125 1.49552 8.69125C2.4138 8.69125 4.09621 8.6295 6.07688 8.26834C7.2069 8.06228 8.27844 7.78493 9.2839 7.4412C9.54565 7.96286 9.80585 8.51313 10.0582 9.08989C8.6503 9.54315 7.46306 10.1953 6.52262 10.8429C4.9456 11.9289 3.84082 13.1338 3.23756 13.8788C2.12064 12.5616 1.44504 10.8591 1.44504 9.00088C1.44504 8.89703 1.4487 8.79404 1.45294 8.69116ZM4.27886 14.8927C4.79821 14.2388 5.8553 13.0485 7.38445 12.0042C8.42362 11.2943 9.49873 10.767 10.6055 10.4209C11.2477 12.0854 11.796 13.9245 12.1228 15.8773C11.1703 16.3116 10.1135 16.5557 9 16.5557C7.2147 16.5557 5.57323 15.932 4.27886 14.8927ZM13.4523 15.0992C13.1154 13.3057 12.613 11.6194 12.0322 10.0782C13.4608 9.83717 14.9374 9.88688 16.4539 10.2275C16.1268 12.2207 15.0177 13.9532 13.4523 15.0992Z" fill="#002E24"/>
</g>
<defs>
<clipPath id="clip0_785_1173">
<rect width="18" height="18" fill="white"/>
</clipPath>
</defs>
</svg>
