<svg width="196" height="110" viewBox="0 0 196 110" fill="none" xmlns="http://www.w3.org/2000/svg">
<g clip-path="url(#clip0_442_9397)">
<path d="M184 35.9307L174.483 48.4981L183.248 60.5951H174.706L165.987 48.0691L165.59 48.6299L168.953 53.8993L164.703 60.5951H156.162L165.501 47.162L156.736 35.9307H165.324L173.908 47.6362L174.263 47.162L170.854 41.934L175.458 35.9307H184Z" fill="#C1C1C1"/>
<path d="M131.779 35.9307V42.54H124.837C120.9 42.54 118.421 43.3153 118.421 48.0691C118.421 53.2067 120.9 53.9858 124.837 53.9858H131.875V60.5951H123.9C116.157 60.5951 110.978 56.7937 110.978 49.1907V47.0754C110.978 39.1713 116.199 35.9307 123.9 35.9307H131.779Z" fill="#C1C1C1"/>
<path d="M133.472 49.4429V35.9307H140.775V48.1105C140.775 52.5179 141.084 54.3321 145.156 54.3321C149.228 54.3321 149.579 52.5179 149.579 48.1105V35.9307H156.837V49.4429C156.837 57.9529 152.367 61.0619 145.156 61.0619C137.945 61.0619 133.472 57.9605 133.472 49.4429Z" fill="#C1C1C1"/>
<path d="M88.7393 60.5951V35.9307H101.395C106.972 35.9307 109.802 37.5717 109.802 41.3732V42.062C109.802 45.3892 107.77 47.162 105.202 47.4217V47.6362C108.078 47.8094 110.068 49.4504 110.068 53.0787V53.7713C110.068 58.047 108.298 60.5951 100.998 60.5951H88.7393ZM96.0391 45.4758H99.5097C101.631 45.4758 102.518 44.3956 102.518 42.9691C102.518 41.5426 101.631 40.8989 99.5097 40.8989H96.0391V45.4758ZM96.0391 54.7198H99.5097C101.631 54.7198 102.915 54.1138 102.915 52.1265C102.915 50.4441 101.631 50.0564 99.5097 50.0564H96.0391V54.7198Z" fill="#C1C1C1"/>
<path d="M86.6839 35.9307H79.3802V45.6489L70.6651 45.7355V35.9307H63.3613V60.5951H70.6651V51.7388H79.3802V60.5951H86.6839V35.9307Z" fill="#C1C1C1"/>
<path d="M49.7411 48.1631C49.7471 48.9448 49.5156 49.7106 49.0758 50.3637C48.6359 51.0169 48.0075 51.5281 47.27 51.8327C46.5325 52.1373 45.719 52.2216 44.9324 52.075C44.1458 51.9283 43.4215 51.5573 42.8509 51.0089C42.2803 50.4604 41.8892 49.7591 41.727 48.9937C41.5648 48.2283 41.6388 47.4331 41.9396 46.7087C42.2404 45.9843 42.7545 45.3632 43.4169 44.924C44.0794 44.4848 44.8604 44.2472 45.6612 44.2412C46.7332 44.2391 47.7629 44.6498 48.5267 45.384C49.2905 46.1183 49.7269 47.1169 49.7411 48.1631Z" fill="#C1C1C1"/>
<path d="M20.0979 48.1632C20.1047 48.9486 19.8719 49.7182 19.429 50.374C18.9862 51.0297 18.3533 51.542 17.6111 51.8455C16.8689 52.1489 16.051 52.2299 15.2615 52.078C14.4719 51.9262 13.7466 51.5484 13.1779 50.9927C12.6092 50.4371 12.2228 49.7288 12.0679 48.958C11.9131 48.1873 11.9968 47.389 12.3085 46.6649C12.6201 45.9408 13.1455 45.3236 13.8178 44.892C14.4901 44.4603 15.2789 44.2338 16.0835 44.2413C17.1451 44.253 18.1598 44.6701 18.9101 45.4032C19.6605 46.1363 20.0868 47.127 20.0979 48.1632Z" fill="#C1C1C1"/>
<path d="M34.9215 48.1631C34.9284 48.948 34.6958 49.7172 34.2535 50.3727C33.8112 51.0283 33.179 51.5406 32.4375 51.8444C31.696 52.1482 30.8786 52.2298 30.0894 52.0789C29.3002 51.928 28.5749 51.5513 28.0056 50.9968C27.4364 50.4423 27.0491 49.735 26.893 48.965C26.7368 48.195 26.8189 47.3971 27.1287 46.6728C27.4386 45.9484 27.9622 45.3304 28.633 44.8974C29.3038 44.4644 30.0914 44.236 30.8956 44.2412C31.9592 44.25 32.9768 44.6658 33.7296 45.3992C34.4825 46.1326 34.9104 47.125 34.9215 48.1631ZM40.9488 43.1346L48.3605 31H37.8754L35.8624 36.7624C34.104 41.8474 27.8877 41.9114 26.0676 36.7624L23.9929 31H13.5811L20.6765 42.5249C23.2525 46.7517 23.1908 49.695 20.8038 53.8164L13.6312 66.0038H23.9929L26.1293 59.8122C27.8877 54.7235 34.0423 54.5429 35.8007 59.8122L37.8754 66.0038H48.3605L40.8871 53.2519C38.6274 49.4428 38.5657 46.9963 40.9488 43.1346Z" fill="#C1C1C1"/>
</g>
<defs>
<clipPath id="clip0_442_9397">
<rect width="172" height="35" fill="white" transform="translate(12 31)"/>
</clipPath>
</defs>
</svg>
