<svg width="80" height="80" viewBox="0 0 80 80" fill="none" xmlns="http://www.w3.org/2000/svg">
<rect width="80" height="80" rx="18" fill="#FC6B5C"/>
<path d="M55.125 53.7498H37.8196L51.9715 39.5979L51.9723 39.5971L51.9731 39.5963L56.4998 35.0695C56.7552 34.8142 56.9578 34.511 57.0961 34.1774C57.2343 33.8437 57.3055 33.4861 57.3055 33.125C57.3055 32.7638 57.2344 32.4062 57.0962 32.0725C56.958 31.7389 56.7554 31.4357 56.5 31.1803L48.8195 23.4997C48.3033 22.9849 47.6039 22.6958 46.8749 22.6958C46.1458 22.6958 45.4465 22.985 44.9303 23.4999L24.3053 44.1249C24.0383 44.3919 23.8293 44.7112 23.6914 45.0628C23.6772 45.0971 23.6653 45.132 23.6541 45.1672C23.5527 45.4572 23.5006 45.7621 23.5 46.0694V53.7498C23.5008 54.4789 23.7908 55.1779 24.3064 55.6935C24.8219 56.209 25.5209 56.499 26.25 56.4998H55.125C55.4897 56.4998 55.8394 56.355 56.0973 56.0971C56.3551 55.8393 56.5 55.4895 56.5 55.1248C56.5 54.7602 56.3551 54.4104 56.0973 54.1526C55.8394 53.8947 55.4897 53.7498 55.125 53.7498ZM46.875 25.4444L54.5553 33.1248L51 36.6802L43.3196 28.9999L46.875 25.4444Z" fill="white"/>
</svg>
