<svg width="80" height="80" viewBox="0 0 80 80" fill="none" xmlns="http://www.w3.org/2000/svg">
<rect width="80" height="80" rx="18" fill="#186FE1"/>
<path d="M57.2173 44.2894L53.9253 35.2449C53.6752 34.56 53.1637 34.0023 52.5029 33.6941C51.8421 33.386 51.086 33.3526 50.4006 33.6012L40.0979 37.3511L42.0018 26.5538C42.1284 25.8356 41.9646 25.0964 41.5463 24.4989C41.1279 23.9014 40.4894 23.4946 39.7711 23.368L30.2925 21.6969C29.9368 21.6341 29.5723 21.642 29.2197 21.7202C28.8671 21.7983 28.5333 21.9451 28.2375 22.1522C27.9417 22.3594 27.6895 22.6227 27.4955 22.9273C27.3014 23.2319 27.1693 23.5717 27.1066 23.9274L22.9494 47.504C22.7745 48.5172 22.802 49.555 23.0305 50.5576C23.2589 51.5601 23.6837 52.5074 24.2804 53.3449C24.9675 54.3198 25.879 55.1153 26.9379 55.6643C27.9968 56.2134 29.1722 56.4998 30.365 56.4995H30.3656C30.369 56.4995 30.3723 56.5 30.3758 56.5H54.4383C55.1674 56.4992 55.8664 56.2092 56.3819 55.6937C56.8975 55.1781 57.1875 54.4791 57.1883 53.75V46.2353C57.4362 45.6121 57.4465 44.9196 57.2173 44.2894ZM30.3758 51C29.9679 51 29.5691 50.8791 29.2299 50.6524C28.8908 50.4258 28.6264 50.1037 28.4703 49.7268C28.3142 49.35 28.2733 48.9353 28.3529 48.5352C28.4325 48.1351 28.6289 47.7676 28.9174 47.4791C29.2058 47.1907 29.5733 46.9943 29.9734 46.9147C30.3735 46.8351 30.7882 46.8759 31.1651 47.032C31.5419 47.1881 31.8641 47.4525 32.0907 47.7917C32.3173 48.1309 32.4383 48.5296 32.4383 48.9375C32.4377 49.4844 32.2202 50.0086 31.8335 50.3953C31.4469 50.7819 30.9226 50.9994 30.3758 51ZM54.4383 53.75H39.265L54.4383 48.2274V53.75ZM37.5005 51.4657C37.6421 51.0705 37.7501 50.6641 37.8234 50.2508L39.5465 40.4783L51.3411 36.1854L54.6331 45.23L37.5005 51.4657Z" fill="white"/>
</svg>
