<svg width="196" height="110" viewBox="0 0 196 110" fill="none" xmlns="http://www.w3.org/2000/svg">
<g clip-path="url(#clip0_5_9345)">
<path d="M68.3236 21.7798C65.5415 24.4192 62.2599 27.9861 61.1185 29.6982L58.9784 32.8371L61.6892 36.7606C63.116 38.9008 66.2548 42.3963 68.609 44.5364L72.8892 48.3887L78.3109 48.3173C83.5899 48.3173 83.6612 48.3173 81.9491 47.1046C78.9529 45.1785 67.6816 33.9071 67.6816 32.9798C67.6816 31.4817 75.8141 23.1352 80.1657 20.2103C82.3058 18.7122 84.0892 17.3568 84.0892 17.2141C84.0892 17.1428 81.6637 17.0001 78.7389 17.0001H73.3886L68.3236 21.7798Z" fill="#B7B7B7"/>
<path d="M94.0765 17.6416C86.4434 19.2111 81.6637 25.1321 81.5924 33.0505C81.5211 46.5333 97.2867 53.2391 107.345 43.9652C114.408 37.4735 113.837 26.2021 106.133 20.6378C104.563 19.4251 102.209 18.2837 100.996 18.0697C99.7122 17.7843 98.2141 17.499 97.6434 17.4276C97.0727 17.2849 95.4319 17.4276 94.0765 17.6416ZM95.6459 22.8493C95.8599 23.3486 97.0013 23.634 98.4281 23.5626C100.711 23.42 101.068 23.634 102.494 26.6302C103.564 28.913 104.492 29.8404 105.49 29.8404C106.775 29.8404 106.846 30.0544 106.133 31.4098C105.633 32.3372 104.848 33.4786 104.278 33.9779C103.778 34.4773 103.35 35.7614 103.279 36.8314C103.208 39.6849 100.354 44.3932 98.6421 44.6786C97.4293 44.8212 97.0013 44.3219 96.3593 41.8251C95.9313 40.113 95.4319 37.4735 95.2179 35.9754C94.7899 32.9079 93.7911 31.9091 91.5797 32.2658C87.5848 32.9792 86.3007 27.4862 89.7249 24.062C91.865 21.9219 95.1465 21.2798 95.6459 22.8493ZM105.776 40.113C105.562 41.1117 105.062 41.9677 104.706 41.9677C103.707 41.9677 103.921 38.5435 104.991 38.1869C106.204 37.7588 106.347 37.9728 105.776 40.113Z" fill="#B7B7B7"/>
<path d="M110.199 17.5708C110.555 17.8562 112.695 19.5683 114.978 21.2804C119.401 24.5619 126.178 31.6957 126.178 33.0511C126.178 33.9785 115.62 44.3224 112.267 46.8192L110.127 48.3173L115.62 48.3887H121.113L126.036 43.5377C128.746 40.8269 131.885 37.3313 132.955 35.6906L134.881 32.7657L132.242 29.1989C130.815 27.2014 127.534 23.6345 124.966 21.2804L120.257 17.0001H114.907C111.911 17.0001 109.771 17.2855 110.199 17.5708Z" fill="#B7B7B7"/>
<path d="M141.73 55.3081L141.516 58.7323L138.52 58.9463C135.809 59.1603 135.452 59.3743 135.452 60.9437C135.452 62.5132 135.738 62.6558 138.662 62.6558H141.873V70.2176V77.7794L144.298 80.2049C146.367 82.2737 147.223 82.6304 150.005 82.6304C153.144 82.6304 153.287 82.559 153.287 80.4902C153.287 78.4928 153.073 78.3501 150.861 78.3501C146.866 78.3501 146.153 77.066 146.153 69.3616V62.6558H150.076C153.786 62.6558 154 62.5845 154 60.9437C154 59.303 153.715 59.1603 150.29 58.9463L146.51 58.7323L146.296 55.3081C146.082 52.0979 145.939 51.9552 144.013 51.9552C142.087 51.9552 141.944 52.0979 141.73 55.3081Z" fill="#B7B7B7"/>
<path d="M42 70.2176V81.917H44.1401H46.2803V74.1412V66.3654L48.4917 64.5106C51.4879 62.0138 55.4115 61.9425 57.7656 64.5106C59.335 66.1514 59.4777 67.0074 59.6917 74.1412L59.9771 81.917H62.0459H64.186L64.0433 73.6418C63.972 69.1476 64.0433 65.3667 64.186 65.224C68.3949 62.0138 72.5325 61.7285 75.172 64.4393C76.8841 66.08 76.9554 66.6507 76.9554 74.0699V81.917H79.0955H81.2357V73.8558C81.2357 64.6533 80.2369 61.8711 76.1707 59.6597C72.9605 57.8762 67.0395 58.2329 64.1147 60.373L62.0459 61.9425L59.4064 60.159C56.3389 58.0902 52.2726 57.8049 48.9911 59.517C47.707 60.159 46.6369 60.373 46.3516 59.945C46.1376 59.5883 45.0675 59.1603 43.9975 58.9463L42 58.5896V70.2176Z" fill="#B7B7B7"/>
<path d="M93.4344 59.9446C89.0828 62.8695 88.0127 65.0096 88.0127 70.5026C88.0127 75.7816 89.0114 77.8504 92.7923 80.7039C96.5732 83.486 105.134 82.9867 107.987 79.7765C109.2 78.4211 109.2 78.2784 107.987 76.923C106.846 75.6389 106.56 75.5676 105.49 76.5663C103.279 78.5637 100.069 79.2771 97.2866 78.3497C94.5758 77.4223 91.9363 74.6402 91.9363 72.5714C91.9363 71.2873 92.6496 71.216 101.21 71.216H110.484L110.056 68.8618C108.843 62.4415 105.419 59.0173 99.6407 58.5179C96.5019 58.3039 95.4318 58.5179 93.4344 59.9446ZM101.924 63.0122C103.778 63.9395 105.49 66.0083 105.49 67.2211C105.49 67.4351 102.637 67.6491 99.07 67.6491C92.0789 67.6491 91.2229 67.0784 94.2904 64.2962C97.0726 61.7281 98.9273 61.4427 101.924 63.0122Z" fill="#B7B7B7"/>
<path d="M118.902 59.5172C116.476 60.8013 115.478 62.5847 115.478 65.7236C115.478 68.7911 116.976 70.1465 122.469 72.0013C127.605 73.7134 128.746 74.7835 127.605 76.8523C126.464 78.9924 123.753 79.4204 120.043 77.9937C117.047 76.8523 116.69 76.8523 115.62 77.851C113.195 80.2765 118.759 83.0586 124.966 82.4166C127.89 82.2026 128.96 81.6319 130.601 79.8484C134.596 75.3542 132.599 71.0739 125.394 68.7198C120.899 67.293 119.401 66.0803 119.972 64.5108C120.757 62.4421 123.824 61.586 126.606 62.5847C128.532 63.2981 129.317 63.2981 130.102 62.6561C131.671 61.372 131.386 60.6586 129.032 59.4459C126.392 58.0905 121.399 58.0905 118.902 59.5172Z" fill="#B7B7B7"/>
</g>
<defs>
<clipPath id="clip0_5_9345">
<rect width="110" height="196" fill="white" transform="matrix(0 -1 1 0 0 110)"/>
</clipPath>
</defs>
</svg>
