<svg width="196" height="110" viewBox="0 0 196 110" fill="none" xmlns="http://www.w3.org/2000/svg">
<g clip-path="url(#clip0_5_9347)">
<path d="M64.707 79.0481L65.9159 82.1066L63.5391 82.1168L64.707 79.0481ZM63.5186 76.4687L59.6666 85.8075L62.1253 85.7973L62.7708 84.0947L66.6945 84.0743L67.3604 85.7667L69.8088 85.7565L65.8646 76.4585L63.5186 76.4687Z" fill="#B7B7B7"/>
<path d="M77.7176 85.716L70.8332 85.7465L70.782 76.4282L73.087 76.418L73.1178 83.7381L77.7074 83.7075L77.7176 85.716Z" fill="#B7B7B7"/>
<path d="M81.9591 78.3751L81.9898 85.6952L79.7052 85.7054L79.6745 78.3853L76.6523 78.3955L76.6421 76.3972L84.9608 76.3564L84.971 78.3547L81.9591 78.3751Z" fill="#B7B7B7"/>
<path d="M93.3511 85.6343L86.0876 85.6751L86.0364 76.3465L93.2589 76.3159L93.2691 78.2836L88.3414 78.3142L88.3517 80.0677L92.8696 80.0473L92.8798 81.9029L88.3619 81.9335L88.3722 83.687L93.3408 83.6564L93.3511 85.6343Z" fill="#B7B7B7"/>
<path d="M99.2724 80.4856C100.092 80.4856 100.625 80.037 100.614 79.354C100.614 78.6811 100.082 78.2427 99.2622 78.2427L97.0903 78.2529L97.1006 80.4958L99.2724 80.4856ZM100.604 85.5934L97.7767 82.4125H97.1108L97.1313 85.6138L94.8365 85.624L94.7853 76.3056L99.4978 76.2852C101.516 76.275 102.858 77.4883 102.868 79.3132C102.879 80.8425 101.936 81.9435 100.43 82.2902L103.37 85.5832L100.604 85.5934Z" fill="#B7B7B7"/>
<path d="M113.256 85.5323L111.371 85.5425L106.618 80.1696L106.649 85.5628L104.354 85.573L104.303 76.2547L106.208 76.2445L110.962 81.7906L110.931 76.2241L113.215 76.2139L113.256 85.5323Z" fill="#B7B7B7"/>
<path d="M119.116 78.7727L117.949 81.8414L120.325 81.8312L119.116 78.7727ZM121.77 85.4913L121.104 83.7989L117.18 83.8193L116.535 85.5219L114.076 85.5321L117.928 76.1933L120.284 76.1831L124.229 85.4811L121.77 85.4913Z" fill="#B7B7B7"/>
<path d="M128.285 78.1407L128.326 85.4507L126.042 85.471L126.011 78.1509L122.989 78.1611L122.979 76.1629L131.297 76.1221L131.308 78.1203L128.285 78.1407Z" fill="#B7B7B7"/>
<path d="M139.688 85.3999L132.424 85.4305L132.373 76.1121L139.595 76.0713L139.606 78.0492L134.678 78.0797L134.688 79.8333L139.206 79.8027L139.216 81.6684L134.698 81.699L134.709 83.4424L139.677 83.422L139.688 85.3999Z" fill="#B7B7B7"/>
<path d="M63.2215 96.4921L67.9648 96.4717C68.7536 96.4717 69.3991 96.2474 69.901 95.8192C70.403 95.391 70.6489 94.8405 70.6489 94.1778C70.6489 93.5151 70.3928 92.9646 69.8806 92.5364C69.3786 92.1082 68.7229 91.9043 67.9443 91.9043L63.201 91.9247L63.2215 96.4921ZM75.0131 105.902L70.7514 105.923L65.0451 99.6424L63.2215 99.6526L63.2523 105.963L59.7588 105.984L59.6666 88.8049L67.9033 88.7642C68.5692 88.7642 69.2556 88.8457 69.9728 89.0088C70.6796 89.172 71.3763 89.4982 72.0524 89.9876C72.7286 90.4668 73.2408 91.0887 73.5789 91.8533C73.9169 92.6077 74.0911 93.3826 74.0911 94.1676C74.1014 95.5847 73.6608 96.7776 72.7798 97.7563C71.8988 98.7248 70.7001 99.3264 69.1942 99.5609L75.0131 105.902Z" fill="#B7B7B7"/>
<path d="M84.0797 102.956C84.8275 102.956 85.5446 102.803 86.231 102.517C86.9174 102.232 87.5014 101.834 88.0034 101.314C88.5054 100.794 88.8947 100.193 89.1713 99.4895C89.4479 98.786 89.5913 98.0418 89.581 97.2568C89.581 96.4717 89.4274 95.7275 89.1508 95.0138C88.8639 94.3103 88.4644 93.6884 87.9624 93.1685C87.4502 92.6485 86.856 92.2509 86.1696 91.9756C85.4832 91.7004 84.7661 91.5576 84.0079 91.5678C83.2601 91.5678 82.5327 91.7208 81.8566 92.0062C81.1702 92.2917 80.5862 92.6995 80.0842 93.2195C79.5823 93.7394 79.193 94.3613 78.9164 95.075C78.6398 95.7886 78.4963 96.5329 78.5066 97.3179C78.5066 98.1029 78.6602 98.8472 78.9368 99.5507C79.2237 100.254 79.6232 100.856 80.1252 101.365C80.6272 101.875 81.2317 102.273 81.918 102.548C82.6044 102.823 83.3216 102.956 84.0797 102.956ZM84.0079 88.285C85.2373 88.2748 86.4154 88.4991 87.5219 88.9579C88.6385 89.4167 89.6118 90.059 90.4416 90.8746C91.2714 91.7004 91.9271 92.6587 92.3983 93.7598C92.8696 94.8609 93.1052 96.0129 93.1052 97.2364C93.1155 98.4496 92.8901 99.6016 92.4291 100.703C91.9681 101.804 91.3329 102.762 90.5031 103.588C89.6732 104.414 88.7103 105.056 87.6038 105.525C86.4974 105.994 85.3193 106.229 84.0899 106.239C82.8606 106.249 81.6824 106.025 80.576 105.566C79.4593 105.107 78.4861 104.475 77.6563 103.659C76.8264 102.844 76.1708 101.885 75.7098 100.794C75.2385 99.7036 75.0029 98.5515 75.0029 97.3383C74.9927 96.1251 75.218 94.9628 75.679 93.8618C76.1401 92.7607 76.7752 91.7921 77.605 90.9561C78.4349 90.1201 79.3979 89.4676 80.5043 89.0089C81.6005 88.5297 82.7683 88.285 84.0079 88.285Z" fill="#B7B7B7"/>
<path d="M103.278 102.854C104.026 102.854 104.743 102.701 105.43 102.415C106.116 102.13 106.7 101.732 107.202 101.212C107.704 100.692 108.093 100.091 108.37 99.3874C108.646 98.684 108.79 97.9397 108.78 97.1547C108.78 96.3697 108.626 95.6254 108.349 94.9118C108.062 94.2083 107.663 93.5864 107.161 93.0664C106.649 92.5465 106.054 92.1489 105.368 91.8736C104.682 91.5983 103.965 91.4556 103.206 91.4658C102.459 91.4658 101.731 91.6187 101.055 91.9042C100.369 92.1897 99.7847 92.5975 99.2827 93.1174C98.7808 93.6374 98.3915 94.2593 98.1148 94.9729C97.8382 95.6866 97.6948 96.4308 97.7051 97.2159C97.7051 98.0009 97.8587 98.7451 98.1353 99.4486C98.4222 100.152 98.8217 100.754 99.3237 101.263C99.8257 101.773 100.43 102.171 101.117 102.446C101.813 102.721 102.53 102.864 103.278 102.854ZM103.206 88.1829C104.436 88.1728 105.614 88.397 106.72 88.8558C107.837 89.3146 108.81 89.9569 109.64 90.7725C110.47 91.5983 111.126 92.5567 111.597 93.6578C112.068 94.7588 112.304 95.9109 112.304 97.1343C112.314 98.3475 112.089 99.4996 111.628 100.601C111.167 101.702 110.531 102.66 109.702 103.486C108.872 104.312 107.909 104.954 106.802 105.423C105.696 105.892 104.518 106.126 103.288 106.137C102.059 106.147 100.881 105.923 99.7745 105.464C98.6578 105.005 97.6846 104.373 96.8548 103.557C96.0249 102.742 95.3693 101.783 94.9083 100.692C94.437 99.6015 94.2014 98.4495 94.2014 97.2363C94.1911 96.023 94.4165 94.8608 94.8775 93.7597C95.3385 92.6586 95.9737 91.6901 96.8035 90.8541C97.6333 90.0181 98.5963 89.3656 99.7028 88.9068C100.799 88.4276 101.977 88.1931 103.206 88.1829Z" fill="#B7B7B7"/>
<path d="M127.097 91.5986L121.37 91.6291L121.442 105.658L117.959 105.678L117.887 91.6495L112.16 91.6801L112.15 88.5196L127.076 88.4482L127.097 91.5986Z" fill="#B7B7B7"/>
<path d="M134.504 88.0303C135.354 88.0303 136.163 88.1322 136.932 88.3667C137.69 88.591 138.366 88.9172 138.96 89.3454C139.554 89.7736 140.046 90.2936 140.456 90.9155C140.866 91.5374 141.153 92.2205 141.327 92.9545L137.844 93.6886C137.792 93.3114 137.639 92.9138 137.372 92.4958C137.116 92.0778 136.717 91.7311 136.184 91.4457C135.651 91.1704 135.067 91.0277 134.442 91.0277C133.602 91.0277 132.926 91.2417 132.424 91.6699C131.912 92.0879 131.656 92.5977 131.666 93.1788C131.666 93.6376 131.799 94.0148 132.055 94.3105C132.311 94.596 132.762 94.7999 133.397 94.9222L137.096 95.6461C138.52 95.9417 139.626 96.5127 140.425 97.3487C141.224 98.1847 141.624 99.245 141.634 100.55C141.644 102.191 141.03 103.507 139.78 104.495C138.54 105.484 136.891 105.984 134.842 105.994C133.951 105.994 133.09 105.892 132.26 105.688C131.43 105.474 130.693 105.158 130.037 104.74C129.381 104.312 128.849 103.782 128.429 103.129C128.009 102.477 127.742 101.753 127.64 100.927L131.307 100.163C131.533 101.08 131.984 101.784 132.66 102.242C133.336 102.711 134.176 102.936 135.159 102.936C135.856 102.936 136.461 102.813 136.952 102.569C137.444 102.324 137.782 102.038 137.946 101.692C138.12 101.345 138.202 101.029 138.202 100.744C138.202 100.244 138.048 99.8465 137.751 99.5508C137.454 99.2552 136.932 99.0309 136.194 98.8779L132.547 98.2051C131.072 97.9094 129.955 97.3487 129.177 96.533C128.398 95.7174 128.009 94.6367 128.009 93.3114C128.009 92.5569 128.152 91.8535 128.459 91.201C128.767 90.5485 129.197 89.9877 129.761 89.529C130.324 89.06 131.01 88.7032 131.83 88.4381C132.629 88.1628 133.531 88.0303 134.504 88.0303Z" fill="#B7B7B7"/>
<path d="M105.368 50.5221C106.895 51.4702 108.718 52.4489 110.275 53.1932C110.788 53.4685 111.423 53.7335 111.863 53.9374C112.232 54.1108 112.57 54.1413 112.98 54.0088C117.815 52.7548 122.518 52.347 124.485 52.245C124.997 52.2144 125.366 51.6333 125.366 51.6333C125.468 51.2561 125.232 50.991 124.659 50.9197C122.118 50.5832 114.609 49.7064 105.85 49.3598C104.969 49.3394 104.661 50.0531 105.368 50.5221Z" fill="#B7B7B7"/>
<path d="M75.7712 51.6433C75.8429 52.0205 76.1093 52.2142 76.6522 52.255C78.6192 52.3264 83.4547 52.724 88.2902 54.0188C88.7 54.1513 88.997 54.1207 89.4068 53.9474C91.466 53.1012 92.9207 52.5303 96.0659 50.4607C96.8137 49.9917 96.6088 49.3086 95.7585 49.3494C87.1325 49.5839 79.0802 50.634 76.5498 50.9704C76.0068 51.0316 75.7405 51.2661 75.7712 51.6433Z" fill="#B7B7B7"/>
<path d="M97.7254 51.3987C95.7277 52.6119 92.7158 54.1717 91.8348 54.6101C91.7016 54.6815 92.1011 54.9874 92.7465 55.3238C93.4534 55.7316 94.2013 56.0986 94.7135 56.4758C95.154 56.7511 95.4921 56.9448 95.7585 57.0876C96.2707 57.322 96.6702 57.2609 96.9059 56.7103C97.6537 55.1913 98.1557 53.5294 98.5245 52.0409C98.7806 51.2967 98.3709 51.0316 97.7254 51.3987Z" fill="#B7B7B7"/>
<path d="M112.683 57.7604C113.256 58.5047 113.963 59.3203 114.342 59.6873C115.664 61.1045 117.221 62.1546 118.297 62.7357C118.707 62.9702 119.075 62.9396 119.444 62.6031C120.09 61.9608 120.694 61.2166 121.206 60.4723C121.575 59.9626 121.38 59.5548 120.838 59.3611C118.737 58.6882 116.002 57.6687 114.076 56.8225C113.769 56.6899 113.4 56.6492 113.062 56.6899C112.447 56.7103 112.304 57.2507 112.683 57.7604Z" fill="#B7B7B7"/>
<path d="M123.163 57.3933C123.501 56.751 123.808 56.1392 124.044 55.5377C124.28 55.028 123.942 54.7221 123.266 54.7935C122.046 54.926 120.387 55.0993 118.492 55.4358C117.641 55.5683 117.58 56.2514 118.389 56.547C119.741 57.0568 121.032 57.4952 122.046 57.8316C122.559 57.9948 122.927 57.8316 123.163 57.3933Z" fill="#B7B7B7"/>
<path d="M98.5041 59.6871C99.0163 60.1969 99.5183 60.7372 99.9896 61.2776C100.461 61.7873 100.932 61.7873 101.373 61.2776C101.844 60.7678 102.387 60.2581 102.858 59.891C103.329 59.4832 103.432 59.0142 103.124 58.4331C102.479 57.016 101.803 55.4255 101.301 54.0696C100.963 53.2234 100.317 53.1928 99.9793 54.039C99.4364 55.3542 98.7909 56.9446 98.2582 58.2292C97.9611 58.8103 98.0636 59.2793 98.5041 59.6871Z" fill="#B7B7B7"/>
<path d="M102.807 52.316C103.217 53.6719 103.719 55.2216 104.364 56.6489C104.6 57.2199 105.009 57.3218 105.511 57.0567C105.983 56.8222 106.597 56.4858 107.069 56.2411C107.509 55.9659 108.011 55.6702 108.595 55.3236C109.2 54.9565 109.2 54.5487 108.564 54.2429C107.284 53.6719 105.388 52.683 103.698 51.6023C103.001 51.1639 102.53 51.5411 102.807 52.316Z" fill="#B7B7B7"/>
<path d="M94.0887 59.4121C93.2793 58.9125 92.1217 58.2091 91.4456 57.8318C91.1382 57.6687 90.8719 57.8318 90.5645 58.2804C89.9908 59.096 89.3556 59.9728 88.577 60.8598C87.194 62.3585 85.6471 63.48 84.4997 64.2242C83.9567 64.5607 83.9669 65.0092 84.5099 65.3355C85.227 65.8045 86.0364 66.3754 86.7535 66.8444C87.1223 67.0789 87.5014 67.0789 87.9009 66.8036C89.3864 65.7841 92.1832 63.6329 94.2936 60.5845C94.6419 60.1258 94.5394 59.718 94.0887 59.4121Z" fill="#B7B7B7"/>
<path d="M87.071 59.6875C87.6755 59.0758 88.2902 58.4029 88.7614 57.6587C89.0687 57.1897 88.6897 56.6799 88.6897 56.6799C88.3516 56.476 88.0443 56.476 87.6447 56.6493C85.0016 57.6994 82.0921 58.7495 80.0637 59.453C79.49 59.6875 79.3568 60.1259 79.7563 60.6051C80.33 61.3187 81.0062 62.1242 81.6823 62.7664C82.0204 63.1029 82.3892 63.1335 82.8297 62.9398C83.8542 62.3586 85.688 61.2066 87.071 59.6875Z" fill="#B7B7B7"/>
<path d="M77.062 55.66C77.2669 56.2004 77.5332 56.8121 77.8406 57.4238C78.1479 57.9947 78.5475 58.1375 79.029 57.9641C80.0432 57.5869 81.3955 57.0874 82.9219 56.5062C83.7313 56.231 83.7005 55.5275 82.8502 55.3542C80.8218 54.977 79.029 54.7425 77.7381 54.6813C77.1235 54.6507 76.8264 55.0585 77.062 55.66Z" fill="#B7B7B7"/>
<path d="M96.1375 62.2158C94.1501 64.5607 92.1011 66.5284 90.6157 67.8946C90.3083 68.2004 90.5849 68.5368 91.2303 68.7407C92.347 69.0364 93.5661 69.3728 94.5804 69.5666C95.0516 69.6277 95.3897 69.4646 95.6253 69.0568L98.5758 64.4078C98.8421 64 98.8114 63.5922 98.4324 63.2252C98.0943 62.8887 97.6845 62.4809 97.3054 62.1445C96.9161 61.7673 96.5064 61.7774 96.1375 62.2158Z" fill="#B7B7B7"/>
<path d="M112.129 61.0129C111.351 60.1667 110.767 59.2594 110.224 58.4132C109.988 58.0461 109.609 57.9748 109.138 58.2195C108.564 58.5253 107.786 58.9331 107.212 59.239C106.71 59.4735 106.608 59.922 106.946 60.391C109.025 63.2865 111.638 65.407 113.062 66.4775C113.43 66.7834 113.81 66.814 114.209 66.5387C114.814 66.1615 115.387 65.7231 115.961 65.3459C116.504 65.0094 116.494 64.5303 115.951 64.1938C114.885 63.5005 113.42 62.4301 112.129 61.0129Z" fill="#B7B7B7"/>
<path d="M103.883 62.0423C103.514 62.4195 103.176 62.7865 102.879 63.1943C102.571 63.5716 102.582 63.9386 102.817 64.3464L105.686 68.9342C105.921 69.342 106.3 69.5052 106.772 69.3726C107.888 69.0973 109.005 68.7813 110.081 68.4449C110.757 68.241 110.818 67.7618 110.316 67.3234C108.749 66.0082 106.854 64.2954 105.081 62.1442C104.723 61.6651 104.282 61.6345 103.883 62.0423Z" fill="#B7B7B7"/>
<path d="M98.9857 69.913L102.643 69.8926C103.084 69.8926 103.114 69.4542 102.735 68.8731L101.199 66.5486C100.86 66.0082 100.348 66.049 100.01 66.5588L98.4324 68.9037C98.0739 69.4746 98.2788 69.913 98.9857 69.913Z" fill="#B7B7B7"/>
<path d="M108.441 23.7699C108.441 23.7699 109.415 27.012 106.341 27.5421C105.204 24.9424 108.441 23.7699 108.441 23.7699ZM112.304 21.4148C112.816 24.0146 109.732 24.5244 109.732 24.5244C109.732 24.5244 109.066 21.4148 112.304 21.4148ZM114.004 17.3572C114.516 20.1303 111.433 20.6094 111.433 20.6094C111.433 20.6094 110.921 17.3572 114.004 17.3572ZM116.893 18.8457C116.893 18.8457 117.877 21.9246 114.117 22.3936C113.646 19.3146 116.893 18.8457 116.893 18.8457ZM103.883 31.3144C105.675 29.2549 108.318 27.4606 110.613 26.176C113.349 24.6569 116.842 23.5354 121.032 22.4853C121.503 22.3528 121.708 22.0775 121.503 21.7717C119.813 18.8661 117.446 16.2255 114.26 14.4006C113.994 14.2272 113.748 14.268 113.553 14.5025C108.585 19.7836 104.354 24.6467 103.268 31.141C103.278 31.5794 103.544 31.6814 103.883 31.3144Z" fill="#B7B7B7"/>
<path d="M118.635 37.2785C120.079 34.903 123.091 36.4628 123.091 36.4628C123.091 36.4628 121.391 39.45 118.635 37.2785ZM112.693 38.0329C112.693 38.0329 114.127 34.9743 117.088 37.0746C115.582 39.4806 112.693 38.0329 112.693 38.0329ZM107.202 39.45C108.349 36.6769 111.433 37.829 111.433 37.829C111.433 37.829 110.449 40.9079 107.202 39.45ZM125.909 35.8817C125.878 35.5453 125.734 35.372 125.396 35.3414C123.03 35.0661 112.037 34.2607 104.63 38.6548C103.442 39.3685 103.145 40.2147 103.145 41.3973C103.145 42.5494 103.278 42.9572 103.452 46.1992C103.483 46.5357 103.657 46.709 103.964 46.7396C106.874 47.0148 122.333 48.4626 125.407 48.7684C125.714 48.799 125.919 48.6359 125.95 48.33C126.349 45.6487 126.482 41.6318 125.909 35.8817Z" fill="#B7B7B7"/>
<path d="M89.6937 38.0631C89.6937 38.0631 92.2958 36.4421 93.9247 39.0418C90.8513 40.6731 89.6937 38.0631 89.6937 38.0631ZM83.762 37.38C83.762 37.38 86.7535 36.0241 87.9111 38.3995C85.2475 40.3366 83.762 37.38 83.762 37.38ZM77.7689 37.6859C77.7689 37.6859 80.7808 35.9425 82.0409 38.6646C79.3261 40.3978 77.7689 37.6859 77.7689 37.6859ZM97.285 38.4505C91.466 35.7794 80.7808 36.1158 75.4331 36.8601C75.1975 36.8601 75.0643 37.064 75.0233 37.3698C74.6545 42.4062 75.0951 45.7197 75.1975 48.2583C75.2282 48.5947 75.4331 48.768 75.7712 48.7272C78.1377 48.35 87.235 46.8717 97.7562 46.6984C98.0943 46.6984 98.2685 46.5251 98.2992 46.1581C98.4734 42.9466 98.6065 42.5388 98.6065 41.3867C98.6065 40.408 98.2377 38.8889 97.285 38.4505Z" fill="#B7B7B7"/>
<path d="M88.9868 20.344C85.9134 20.344 85.9134 17.1019 85.9134 17.1019C85.9134 17.1019 89.4888 17.6117 88.9868 20.344ZM90.7592 20.1809C94.0067 20.8232 93.3306 23.9021 93.3306 23.9021C93.3306 23.9021 90.2469 23.4229 90.7592 20.1809ZM82.0307 18.9677C85.1451 20.864 89.1712 23.0253 91.9373 24.7177C94.6419 26.3795 96.1683 27.1238 97.7563 28.7448C98.0226 29.0507 98.3607 28.6429 98.1968 28.2045C97.1826 25.36 96.3015 23.7084 94.9185 21.9854C93.3613 20.0585 91.1587 17.8564 86.7023 14.7774C86.4359 14.5735 86.231 14.5735 85.9954 14.7774C84.4689 15.8581 82.9835 17.0815 81.8975 18.2948C81.6926 18.5293 81.7234 18.7943 82.0307 18.9677Z" fill="#B7B7B7"/>
<path d="M112.068 31.2122C112.068 31.2122 110.951 34.4543 107.878 33.3124C108.82 30.7025 112.068 31.2122 112.068 31.2122ZM116.299 28.2658C115.316 31.0389 112.242 29.8869 112.242 29.8869C112.242 29.8869 113.226 26.8079 116.299 28.2658ZM118.266 30.3966C117.119 32.9658 114.035 32.4968 114.035 32.4968C114.035 32.4968 115.018 29.2446 118.266 30.3966ZM121.882 26.3593C120.735 28.9591 117.651 27.9804 117.651 27.9804C117.651 27.9804 118.635 24.7383 121.882 26.3593ZM123.603 29.0814C123.603 29.0814 122.62 32.3235 119.372 30.7025C120.53 28.1333 123.603 29.0814 123.603 29.0814ZM103.483 34.3218C103.35 34.5257 103.278 34.699 103.278 34.9335V35.2087C103.278 35.5452 103.483 35.7185 103.821 35.6471L111.433 34.4645C116.811 33.2513 122.559 33.445 124.966 33.6183C125.335 33.6183 125.509 33.445 125.437 33.0779C124.997 30.1315 124.116 27.0934 122.835 24.1776C122.702 23.8717 122.466 23.7697 122.159 23.8411C117.252 25.0951 113.943 26.4103 110.962 28.276C108.995 29.6524 105.173 32.1604 103.483 34.3218Z" fill="#B7B7B7"/>
<path d="M82.0614 32.8333C79.111 34.6786 77.7279 31.5283 77.7279 31.5283C77.7279 31.5283 80.8935 30.3048 82.0614 32.8333ZM88.3619 33.0677C86.692 35.1272 83.9464 32.609 83.9464 32.609C83.9464 32.609 86.5691 30.3252 88.3619 33.0677ZM75.8122 35.535C85.5548 34.4849 92.5929 34.6174 97.9304 35.9122C98.2992 35.9836 98.5041 35.8408 98.5041 35.4738V35.3005C98.5041 35.0252 98.4016 34.8621 98.1968 34.6888C94.5804 32.0584 82.7478 29.3159 76.8571 29.3159C76.5498 29.3159 76.3449 29.4179 76.2527 29.7237C75.8429 31.3855 75.4434 33.1391 75.2692 35.0354C75.2282 35.4024 75.4331 35.5758 75.8122 35.535Z" fill="#B7B7B7"/>
<path d="M83.4957 26.0334C80.4223 26.5024 79.9408 23.4336 79.9408 23.4336C79.9408 23.4336 83.0142 22.9239 83.4957 26.0334ZM88.5975 27.7768C88.5975 27.7768 84.8787 27.7768 84.4075 25.177C87.9521 24.0249 88.5975 27.7768 88.5975 27.7768ZM92.8491 29.2755C89.2942 30.2236 89.2942 26.5024 89.2942 26.5024C89.2942 26.5024 92.3778 26.5024 92.8491 29.2755ZM77.4309 27.5219C84.4689 28.2967 91.6402 29.6833 97.8587 32.6297C98.2275 32.803 98.4632 32.6603 98.4632 32.3238C98.4632 32.0893 98.3914 31.8854 98.2275 31.6815C96.1991 29.3162 94.1297 28.0316 91.63 26.5024C87.7063 24.1371 82.5634 21.6291 80.4633 20.4464C80.3301 20.3445 80.1559 20.4464 79.992 20.7217C78.7729 22.618 77.7587 24.708 77.0108 26.9102C76.9289 27.2568 77.0621 27.4913 77.4309 27.5219Z" fill="#B7B7B7"/>
<path d="M105.88 17.2754C105.88 17.2754 104.63 14.0639 107.745 13.3197C109.056 16.0214 105.88 17.2754 105.88 17.2754ZM102.602 21.0578C101.618 18.4581 104.733 16.8676 104.733 16.8676C104.733 16.8676 105.849 20.0791 102.602 21.0578ZM101.25 25.4214C98.7807 23.1173 101.147 21.1598 101.147 21.1598C101.147 21.1598 103.575 23.4639 101.25 25.4214ZM99.2827 16.5312C96.6805 14.9101 98.8114 12.3002 98.8114 12.3002C98.8114 12.3002 101.383 13.9212 99.2827 16.5312ZM99.1802 21.2311C96.1068 20.0791 97.0801 17.0002 97.0801 17.0002C97.0801 17.0002 100.328 18.6314 99.1802 21.2311ZM95.1233 17.0409C92.2446 15.583 94.2115 12.7488 94.2115 12.7488C94.2115 12.7488 97.0186 14.6655 95.1233 17.0409ZM104.057 12.5754C104.057 12.5754 105.04 15.6544 101.957 16.8064C100.809 14.0232 104.057 12.5754 104.057 12.5754ZM111.863 13.0852C108.718 11.6273 104.999 10.9238 100.399 10.9238C95.2872 10.9238 91.9782 11.8006 88.6999 13.2585C88.4336 13.3605 88.4643 13.6357 88.7716 13.8702C93.0027 17.255 96.7522 19.8242 100.881 28.7858C101.086 29.1936 101.352 29.1936 101.455 28.7552C102.838 24.0858 106.802 19.0188 111.976 13.8091C112.242 13.5236 112.201 13.2483 111.863 13.0852Z" fill="#B7B7B7"/>
</g>
<defs>
<clipPath id="clip0_5_9347">
<rect width="110" height="196" fill="white" transform="matrix(0 -1 1 0 0 110)"/>
</clipPath>
</defs>
</svg>
