<svg width="196" height="110" viewBox="0 0 196 110" fill="none" xmlns="http://www.w3.org/2000/svg">
<g clip-path="url(#clip0_442_9395)">
<path d="M56.6352 48.1571C56.5755 48.2566 56.0581 48.4357 55.4611 48.575C52.5955 49.2118 50.9637 51.361 51.4214 53.8684C51.6005 54.7838 52.7348 56.0574 53.9089 56.6544C54.884 57.132 57.4909 57.7887 59.8988 58.1469C61.6699 58.4056 63.242 58.8832 63.7395 59.3011C64.1773 59.6991 64.1773 60.7737 63.7196 61.1916C62.8639 61.9677 61.849 62.2065 59.5008 62.2065C57.0929 62.1866 55.083 61.7289 53.1726 60.7538C52.7149 60.515 52.297 60.3359 52.2373 60.3359C52.1378 60.3359 50.9438 62.8234 50.9438 63.0423C50.9438 63.2214 53.7298 64.3756 55.1228 64.7736C57.3317 65.4104 61.6301 65.4104 63.5206 64.7537C66.6051 63.6791 68.018 61.6692 67.4608 59.1419C67.2618 58.2663 67.0429 57.8683 66.2867 57.1519C65.1126 55.9977 63.4012 55.3808 59.5008 54.6644C56.078 54.0475 55.481 53.8684 55.0233 53.3709C54.486 52.7739 54.7646 52.1172 55.7596 51.6595C56.4561 51.361 57.0332 51.2814 58.9038 51.3013C61.1525 51.3212 61.6102 51.4207 64.9136 52.4953C65.1723 52.5948 65.3912 52.3162 65.8489 51.4008C66.1872 50.7441 66.4658 50.1272 66.4658 50.0277C66.4658 49.8088 63.9982 48.8934 62.5853 48.5949C61.9286 48.4556 61.3117 48.2566 61.1923 48.1571C60.9535 47.9581 56.7745 47.9382 56.6352 48.1571Z" fill="#B6B5B5"/>
<path d="M77.1123 48.177C76.9929 48.2765 76.4556 48.4954 75.8984 48.6745C74.0676 49.2715 72.1771 50.7242 71.1821 52.3162C70.2866 53.7291 69.9881 55.0226 70.0876 57.1121C70.1871 59.4802 70.7244 60.8135 72.2368 62.4055C74.0477 64.3358 76.5153 65.3109 79.5003 65.3109C80.5749 65.3109 81.749 65.1915 82.4057 64.9925C85.0524 64.2164 87.2016 62.4453 88.2961 60.1767C88.7936 59.1419 88.8334 58.8235 88.8533 56.7539C88.8533 54.6843 88.8135 54.3659 88.316 53.3112C87.3409 51.2416 85.2514 49.3909 83.0624 48.6745C82.5251 48.4954 82.0077 48.2566 81.9082 48.177C81.6495 47.9382 77.3511 47.9382 77.1123 48.177ZM82.0077 51.5799C83.341 52.0774 84.2365 52.8336 84.8932 54.0077C85.4106 54.943 85.4703 55.2614 85.4703 56.7539C85.4703 58.6643 85.1121 59.5598 83.938 60.6543C82.6246 61.908 81.7092 62.2264 79.5003 62.2264C77.8088 62.2264 77.371 62.1468 76.5352 61.7488C74.5253 60.7538 73.59 59.3011 73.4706 56.9529C73.4109 55.7788 73.4905 55.2614 73.789 54.545C75.0427 51.6595 78.6844 50.3461 82.0077 51.5799Z" fill="#B6B5B5"/>
<path d="M98.5048 48.2168C98.3456 48.3163 97.6889 48.575 97.072 48.8138C91.0423 50.9829 89.6095 58.8434 94.4253 63.0821C94.9427 63.5199 96.0372 64.1965 96.873 64.5547C98.3655 65.1915 98.4849 65.2114 101.191 65.2114C103.599 65.2114 104.156 65.1517 105.35 64.7338C106.803 64.2363 108.853 63.1418 108.853 62.8831C108.853 62.7637 107.798 61.0125 107.301 60.3359C107.281 60.2961 107.082 60.3558 106.903 60.4951C106.723 60.6344 106.027 60.9926 105.37 61.311C101.331 63.2413 96.8929 62.1866 95.4601 58.9429C94.9626 57.8285 94.9228 55.5997 95.3805 54.545C96.2163 52.5351 98.1466 51.3809 100.833 51.2217C102.724 51.1222 104.674 51.5998 106.186 52.5749L107.102 53.152L107.898 51.958C108.335 51.3013 108.654 50.6446 108.594 50.5053C108.435 50.1073 106.107 48.8735 104.932 48.575C104.355 48.4357 103.878 48.2566 103.878 48.1571C103.878 47.9382 98.863 47.978 98.5048 48.2168Z" fill="#B6B5B5"/>
<path d="M111.838 56.754V64.913H113.529H115.221V56.754V48.595H113.529H111.838V56.754Z" fill="#B6B5B5"/>
<path d="M119.201 56.754V64.913H126.962H134.723V63.4205V61.928H128.653H122.584V60.0375V58.147H127.161H131.738V56.6545V55.162H127.161H122.584V53.371V51.58H128.454H134.325V50.0875V48.595H126.763H119.201V56.754Z" fill="#B6B5B5"/>
<path d="M136.116 50.0875V51.58H139.399H142.683V58.2465V64.913H144.275H145.867V58.2465V51.58H149.15H152.434V50.0875V48.595H144.275H136.116V50.0875Z" fill="#B6B5B5"/>
<path d="M154.623 56.754V64.913H162.384H170.145V63.4205V61.928H164.036H157.907V60.0375V58.147H162.444H166.961V56.6545V55.162H162.444H157.907V53.371V51.58H163.737H169.548V50.0875V48.595H162.086H154.623V56.754Z" fill="#B6B5B5"/>
<path d="M0.795898 77.1515V86.803H20.1984H39.6009V77.1515V67.5H36.2179H32.8349V68.097V68.694L20.2581 68.6542L7.6614 68.5945L7.6017 68.0373L7.542 67.5H4.159H0.795898V77.1515Z" fill="#B6B5B5"/>
<path d="M56.655 70.0472C53.9884 70.9825 51.9984 72.8133 51.1029 75.1416C50.4462 76.8928 50.4661 79.4599 51.1427 81.2111C51.9984 83.42 54.0879 85.3503 56.4361 86.1264C56.9734 86.3055 57.4908 86.5443 57.5903 86.6239C57.849 86.8428 62.7444 86.8627 63.0031 86.6438C63.1026 86.5443 63.5802 86.3652 64.0777 86.2259C64.5752 86.1065 65.6697 85.6687 66.5254 85.2707L68.0577 84.5344V81.2907V78.047H66.3662H64.6747V80.4151V82.7832L63.7394 83.1215C63.2021 83.3006 61.9285 83.4996 60.8937 83.5593C59.3216 83.6389 58.8042 83.5991 57.8291 83.2409C55.4411 82.4051 54.3267 80.9723 54.1675 78.5246C54.0083 75.9376 55.0431 74.2063 57.3515 73.1715C58.4062 72.6939 58.844 72.6143 60.2967 72.6143C62.1673 72.6342 63.9981 73.1317 65.2518 73.9874C65.6299 74.2461 66.0279 74.465 66.1075 74.465C66.3463 74.465 67.8786 72.0571 67.7592 71.8581C67.6995 71.7785 67.0826 71.3805 66.406 71.0024C63.5205 69.3905 59.6002 69.0124 56.655 70.0472Z" fill="#B6B5B5"/>
<path d="M71.6396 78.1465V86.405H79.4006H87.1616V84.9125V83.42H80.9926H74.8236V81.43V79.44H79.4006H83.9776V77.9475V76.455H79.4006H74.8236V74.664V72.873H80.6941H86.5646V71.3805V69.888H79.1021H71.6396V78.1465Z" fill="#B6B5B5"/>
<path d="M89.749 78.1465V86.405H91.341H92.933L92.9728 80.5146L93.0325 74.6242L98.107 80.4947L103.182 86.3851L104.833 86.405H106.465V78.1465V69.888H104.734H103.022L103.142 75.7983C103.261 81.5693 103.261 81.6887 102.903 81.3106C102.704 81.1116 100.634 78.7435 98.306 76.057C95.9777 73.3705 93.8285 70.883 93.5101 70.5248C92.933 69.9079 92.8733 69.888 91.341 69.888H89.749V78.1465Z" fill="#B6B5B5"/>
<path d="M110.246 78.1465V86.405H118.007H125.768V84.9125V83.42H119.699H113.629V81.43V79.44H118.206H122.783V77.9475V76.455H118.206H113.629V74.664V72.873H119.5H125.37V71.3805V69.888H117.808H110.246V78.1465Z" fill="#B6B5B5"/>
<path d="M128.753 78.1266V86.405H130.345H131.937V83.42V80.435H134.285L136.613 80.4549L138.882 83.42L141.151 86.405H143.121C144.673 86.405 145.071 86.3453 145.071 86.1264C145.071 85.9672 144.991 85.808 144.912 85.7682C144.832 85.7284 143.797 84.5145 142.623 83.0419L140.474 80.3753L141.608 79.9176C143.777 79.042 144.872 77.45 144.872 75.2013C144.872 73.5297 144.355 72.3556 143.18 71.3208C141.768 70.087 141.469 70.0273 134.783 69.9477L128.753 69.8482V78.1266ZM140.156 73.0919C142.026 73.6093 142.166 76.2958 140.375 77.1515C139.877 77.3903 138.902 77.45 135.837 77.45H131.937V75.1615V72.873H135.678C137.728 72.873 139.738 72.9725 140.156 73.0919Z" fill="#B6B5B5"/>
<path d="M153.548 70.3656C153.369 70.6442 153.23 70.9029 153.23 70.9427C153.23 71.0024 151.578 74.4053 149.548 78.5246C147.518 82.6638 145.867 86.1065 145.867 86.2259C145.867 86.3254 146.643 86.405 147.578 86.405H149.27L150.205 84.415L151.14 82.4449H155.419H159.697L160.633 84.415L161.568 86.405H163.259C164.195 86.405 164.971 86.3254 164.971 86.2259C164.971 86.0866 157.727 71.1417 157.23 70.286C157.11 70.0671 156.633 69.9676 155.478 69.9278C153.966 69.8681 153.866 69.9079 153.548 70.3656ZM155.916 74.5048C156.115 74.9824 156.712 76.2361 157.23 77.3107C157.767 78.3853 158.205 79.3007 158.205 79.3604C158.205 79.4002 156.951 79.44 155.419 79.44H152.633L153.11 78.3853C154.245 75.8779 155.319 73.669 155.439 73.669C155.498 73.669 155.697 74.0471 155.916 74.5048Z" fill="#B6B5B5"/>
<path d="M166.961 78.1465V86.405H173.926H180.891V84.9125V83.42H175.518H170.145V76.654V69.888H168.553H166.961V78.1465Z" fill="#B6B5B5"/>
<path d="M182.682 78.1465V86.405H190.443H198.204V84.9125V83.42H192.035H185.866V81.43V79.44H190.443H195.02V77.9475V76.455H190.443H185.866V74.664V72.873H191.737H197.607V71.3805V69.888H190.145H182.682V78.1465Z" fill="#B6B5B5"/>
<path d="M1.03492 57.5898L1.09462 67.0025L2.08962 67.102C3.58212 67.2413 6.58702 67.102 6.46762 66.8831C6.24872 66.5448 6.82582 66.704 7.08452 67.0423C7.32332 67.3607 7.34322 67.3408 7.36312 66.7836C7.36312 66.3856 7.48252 66.107 7.68152 66.0274C8.09942 65.8682 31.1237 65.8682 32.0988 66.0473C32.5366 66.107 32.9147 66.306 32.9943 66.4851C33.253 67.2015 33.651 67.301 36.3972 67.2015C37.8499 67.1418 39.1434 67.0423 39.2628 66.9627C39.3822 66.903 39.4021 66.9428 39.3225 67.0622C39.2429 67.2015 39.2827 67.301 39.3822 67.301C39.5414 67.301 39.6011 64.3359 39.6011 57.749V48.197H20.2981H0.995117L1.03492 57.5898Z" fill="#A9A8A8"/>
</g>
<defs>
<clipPath id="clip0_442_9395">
<rect width="196" height="110" fill="white"/>
</clipPath>
</defs>
</svg>
